<svg enable-background="new 0 0 2440 1076.3" viewBox="0 0 2440 1076.3" xmlns="http://www.w3.org/2000/svg" xmlns:xlink="http://www.w3.org/1999/xlink"><radialGradient id="a" cx="920.4551" cy="1008.1313" gradientTransform="matrix(562.637 770.22 1394.8092 -1018.8922 -1922550.75 318351.5312)" gradientUnits="userSpaceOnUse" r="1"><stop offset="0" stop-color="#fb2424"/><stop offset=".2" stop-color="#dc6d6d"/><stop offset=".6216" stop-color="#ffde7d" stop-opacity="0"/><stop offset="1" stop-color="#ed977c" stop-opacity="0"/></radialGradient><radialGradient id="b" cx="921.3008" cy="1007.2735" gradientTransform="matrix(-476.0004 773.9998 1401.6521 861.9987 -972624 -1581172)" gradientUnits="userSpaceOnUse" r="1"><stop offset="0" stop-color="#ffde7d"/><stop offset=".6174" stop-color="#ffdc92" stop-opacity="0"/></radialGradient><path d="m1609.2 1565.4c206.5-112.8 387.3-262.8 517-399.6 86.6-99.9 230.7-289.9 313.8-465.3v-646.3c-407.1 37.2-834.2 163.4-1223.6 318.9 330.8 213.5 547.1 583 392.8 1192.3z" fill="url(#a)"/><path d="m1216.4 373.1c-313.8-202.4-730.6-264.5-1031.9-257.7-49.5 3.3-113.8 9.9-184.5 20.1v1062.8c58.3 28.7 116.8 56.3 175.4 82.8-58.3-80.8-114.2-173.9-167-280.4 251.3-169.4 697.2-423.6 1208-627.6z" fill="url(#b)"/><path d="m1216.4 373.1c-510.8 204-956.7 458.2-1208 627.6 52.9 106.5 108.8 199.6 167 280.4 361.8 163.6 724.1 285.4 1017.8 366.4h244c58.8-24 116.3-51.6 171.9-82 154.4-609.4-61.9-978.9-392.7-1192.4z" fill="url(#a)"/><path d="m1216.4 373.1c-510.8 204-956.7 458.2-1208 627.6 52.9 106.5 108.8 199.6 167 280.4 361.8 163.6 724.1 285.4 1017.8 366.4h244c58.8-24 116.3-51.6 171.9-82 154.4-609.4-61.9-978.9-392.7-1192.4z" fill="url(#b)"/></svg>