<?xml version="1.0" encoding="utf-8"?>
<!-- Generator: Adobe Illustrator 27.0.0, SVG Export Plug-In . SVG Version: 6.00 Build 0)  -->
<svg version="1.1" id="Layer_1" xmlns="http://www.w3.org/2000/svg" xmlns:xlink="http://www.w3.org/1999/xlink" x="0px" y="0px"
	 viewBox="0 0 24 24" style="enable-background:new 0 0 24 24;" xml:space="preserve">
<style type="text/css">
	.st0{fill-rule:evenodd;clip-rule:evenodd;fill:#42210B;}
</style>
<path class="st0" d="M13.4,0.4c-0.5-0.5-1.2-0.5-1.7,0c-0.5,0.5-0.5,1.2,0,1.7l7.7,7.7c0.4,0.4,0.1,1-0.4,1H1.2
	C0.6,10.8,0,11.3,0,12v0c0,0.7,0.6,1.2,1.2,1.2H19c0.5,0,0.8,0.6,0.4,1L11.6,22c-0.5,0.5-0.5,1.2,0,1.7c0.5,0.5,1.2,0.5,1.7,0l10-10
	c0.9-0.9,0.9-2.5,0-3.4C23.1,10.1,13.1,0.1,13.4,0.4z"/>
</svg>
