<svg width="24" height="24" viewBox="0 0 24 24" fill="none" xmlns="http://www.w3.org/2000/svg">
<path fill-rule="evenodd" clip-rule="evenodd" d="M0.63904 0.63904C1.49109 -0.213013 2.87254 -0.213013 3.7246 0.63904L12 8.91444L20.2754 0.63904C21.1275 -0.213013 22.5089 -0.213013 23.361 0.63904C24.213 1.49109 24.213 2.87254 23.361 3.7246L15.0856 12L23.361 20.2754C24.213 21.1275 24.213 22.5089 23.361 23.361C22.5089 24.213 21.1275 24.213 20.2754 23.361L12 15.0856L3.7246 23.361C2.87254 24.213 1.49109 24.213 0.63904 23.361C-0.213013 22.5089 -0.213013 21.1275 0.63904 20.2754L8.91444 12L0.63904 3.7246C-0.213013 2.87254 -0.213013 1.49109 0.63904 0.63904Z" fill="#42210B"/>
</svg>
