<?xml version="1.0" encoding="utf-8"?>
<!-- Generator: Adobe Illustrator 27.0.0, SVG Export Plug-In . SVG Version: 6.00 Build 0)  -->
<svg version="1.1" id="Layer_1" xmlns="http://www.w3.org/2000/svg" xmlns:xlink="http://www.w3.org/1999/xlink" x="0px" y="0px"
	 viewBox="0 0 24 24" style="enable-background:new 0 0 24 24;" xml:space="preserve">
<style type="text/css">
	.st0{fill-rule:evenodd;clip-rule:evenodd;fill:#42210B;}
</style>
<path class="st0" d="M3.4,12L3.4,12l7.6,8.2c0.5,0.6,1.4,0.6,2,0v0l7.6-8.2c1.8-2,1.8-5.2,0-7.2c-1.7-1.9-4.5-1.9-6.2,0
	c-1.3,1.4-3.5,1.4-4.8,0c-1.7-1.9-4.5-1.9-6.2,0C1.5,6.8,1.5,10,3.4,12z M11.1,3.4c0.5,0.5,1.3,0.5,1.8,0c2.5-2.7,6.6-2.7,9.2,0
	c2.5,2.7,2.5,7.2,0,9.9l-7.6,8.2c-1.3,1.4-3.6,1.4-4.9,0l-7.6-8.2c-2.5-2.7-2.5-7.2,0-9.9C4.4,0.7,8.5,0.7,11.1,3.4z"/>
</svg>
