<svg fill="none" height="24" viewBox="0 0 24 24" width="24" xmlns="http://www.w3.org/2000/svg"><g fill="#42210b"><path d="m19.6653 9.42857c0-2.04595-.8107-4.00811-2.2538-5.45482s-3.4004-2.25946-5.4413-2.25946c-2.04085 0-3.99814.81275-5.44126 2.25946-1.44311 1.44671-2.25385 3.40887-2.25385 5.45482 0 3.16453 2.52571 7.28913 7.69511 12.22973 5.1694-4.9406 7.6951-9.0652 7.6951-12.22973zm-7.6951 14.57143c-6.27065-5.7137-9.40514-10.572-9.40514-14.57143 0-2.50061.9909-4.8988 2.75471-6.66701 1.76381-1.768195 4.15605-2.76156 6.65043-2.76156 2.4944 0 4.8867.993365 6.6505 2.76156 1.7638 1.76821 2.7547 4.1664 2.7547 6.66701 0 3.99943-3.1345 8.85773-9.4052 14.57143z"/><path d="m11.9702 12c.6803 0 1.3327-.2709 1.8138-.7532.481-.4822.7512-1.1362.7512-1.81823 0-.68199-.2702-1.33604-.7512-1.81828-.4811-.48223-1.1335-.75315-1.8138-.75315s-1.3327.27092-1.8138.75315c-.481.48224-.75124 1.13629-.75124 1.81828 0 .68203.27024 1.33603.75124 1.81823.4811.4823 1.1335.7532 1.8138.7532zm0 1.7143c-1.1338 0-2.2212-.4515-3.02293-1.2553-.80173-.8037-1.25214-1.8938-1.25214-3.03043 0-1.13665.45041-2.22673 1.25214-3.03046s1.88913-1.25526 3.02293-1.25526 2.2212.45153 3.0229 1.25526c.8018.80373 1.2522 1.89381 1.2522 3.03046 0 1.13663-.4504 2.22673-1.2522 3.03043-.8017.8038-1.8891 1.2553-3.0229 1.2553z"/></g></svg>