<svg fill="none" height="24" viewBox="0 0 24 24" width="24" xmlns="http://www.w3.org/2000/svg"><g fill="#42210b"><path d="m12 12.7118c-.1854 0-.3524-.0659-.4645-.1666l-6.24753-5.56666c-.32857-.29277-.824-.29417-1.15421-.00325-.3918.34518-.39352.95528-.00367 1.30267l6.14071 5.47184.0012.0013.017.0152c.4609.4118 1.0784.6337 1.711.6337.6335.0003 1.2491-.2238 1.709-.6319l6.1609-5.49013c.3898-.3474.3881-.95752-.0037-1.30269-.3303-.29091-.8257-.2895-1.1543.00329l-6.2433 5.56353c-.1201.1057-.2853.1694-.4686.1697z"/><path d="m5.31987 17.531c-.4133.3524-1.03408.3031-1.38655-.1102s-.30315-1.0341.11015-1.3865l2.46357-2.101c.4133-.3525 1.03408-.3031 1.38655.1102s.30316 1.0341-.11015 1.3865z"/><path d="m19.4864 17.4864c.384-.3841.384-1.0069 0-1.391l-2.1071-2.1071c-.3841-.3841-1.0069-.3841-1.391 0s-.3841 1.0069 0 1.391l2.1071 2.1071c.3841.384 1.0069.384 1.391 0z"/><path clip-rule="evenodd" d="m20 5h-16c-1.10457 0-2 .89543-2 2v10c0 1.1046.89543 2 2 2h16c1.1046 0 2-.8954 2-2v-10c0-1.10457-.8954-2-2-2zm-16-2c-2.20914 0-4 1.79086-4 4v10c0 2.2091 1.79086 4 4 4h16c2.2091 0 4-1.7909 4-4v-10c0-2.20914-1.7909-4-4-4z" fill-rule="evenodd"/></g></svg>