<svg enable-background="new 0 0 24 24" viewBox="0 0 24 24" xmlns="http://www.w3.org/2000/svg"><g fill="#42210b"><path d="m20 3h-16c-2.2 0-4 1.8-4 4v10c0 2.2 1.8 4 4 4h16c2.2 0 4-1.8 4-4v-10c0-2.2-1.8-4-4-4zm2 14c0 1.1-.9 2-2 2h-16c-1.1 0-2-.9-2-2v-10c0-1.1.9-2 2-2h16c1.1 0 2 .9 2 2z"/><path d="m17.4 14c-.4-.4-1-.4-1.4 0s-.4 1 0 1.4l2.1 2.1c.4.4 1 .4 1.4 0s.4-1 0-1.4z"/><path d="m6.5 13.9-2.5 2.1c-.4.4-.5 1-.1 1.4s1 .5 1.4.1l2.5-2.1c.4-.4.5-1 .1-1.4s-1-.4-1.4-.1z"/><path d="m18.7 7-6.2 5.6c-.1.1-.3.2-.5.2s-.4-.1-.5-.2l-6.2-5.6c-.3-.3-.8-.3-1.2 0s-.4 1 0 1.3l6.1 5.5c.5.4 1.1.6 1.7.6s1.2-.2 1.7-.6l6.2-5.5c.4-.3.4-1 0-1.3-.3-.3-.8-.3-1.1 0z"/></g></svg>