<svg fill="none" height="24" viewBox="0 0 24 24" width="24" xmlns="http://www.w3.org/2000/svg"><g fill="#42210b"><path d="m12 8.08504c-.0715 0-.1363.00581-.2223.01569-.4646.03341-.7807.41956-.7534.92339.0128.23447.1284.45094.326.60958.1729.13889.3966.21879.6137.21879.0154 0 .0311-.00029.0465-.00116.5668.00262 1.0991.22547 1.5001.62727.4065.4077.6311.9528.634 1.5368-.0061.0607-.0081.0857-.0087.1037-.0224.4652.3242.8464.8092.8877h.0017l.0018.0003c.0273.002.0502.002.0671.002.4431 0 .8321-.3574.8856-.8138.0064-.0529.0137-.1642.0137-.1956 0-2.15883-1.7562-3.91466-3.915-3.91466z"/><path d="m14.685 6.06392h.3458c1.0443 0 2.0272.40794 2.7673 1.14799.74.74034 1.1477 1.72301 1.1477 2.76727v4.04252c0 .4309-.0767.8679-.2284 1.2994-.1232.3533-.4571.5904-.8316.5904-.0991 0-.197-.0166-.2911-.0491l-.0015-.0006-.0014-.0006c-.4574-.1618-.6997-.6665-.5396-1.1259.0851-.2423.1281-.4823.1281-.7136v-4.04252c0-1.18489-.964-2.14896-2.1489-2.14896h-1.0106c-.487 0-.883-.39603-.883-.883 0-.07032-.0572-.12756-.1275-.12756h-2.0214c-.0704 0-.1276.05724-.1276.12756 0 .48697-.396.883-.883.883h-.17375c-.48697 0-.883-.39603-.883-.883 0-.25366.10634-.4893.29027-.65492.12464-.33559.34576-.63487.63196-.85278.33182-.2525.72752-.38615 1.14422-.38615h2.0214c.7075 0 1.3508.39661 1.6756 1.01055z"/><path clip-rule="evenodd" d="m12 0c-6.61685 0-12 5.38315-12 12 0 6.6169 5.38315 12 12 12 6.6169 0 12-5.3831 12-12 0-6.61685-5.3831-12-12-12zm0 14.149c-.5727 0-1.112-.2238-1.5185-.6305-.4064-.4065-.63046-.9458-.63046-1.5185 0-.2583.04852-.514.14237-.7569l2.76409 2.7641c-.2426.0932-.4986.1418-.7575.1418zm-3.03196 2.0214c-1.18489 0-2.14896-.9641-2.14896-2.149v-4.04251c0-.51661.18363-.99836.52271-1.38683l1.34615 1.34615c-.39545.62729-.60319 1.33399-.60319 2.06209 0 2.1588 1.75641 3.915 3.91495 3.915.7281 0 1.4348-.2075 2.0621-.6032l.8583.8583zm-3.91496-6.19151v4.04251c0 2.1588 1.75612 3.915 3.91496 3.915h6.06396c.4535 0 .917-.0918 1.3813-.2732l2.1594 2.1595c-1.8477 1.5579-4.1663 2.4116-6.5727 2.4116-5.64291 0-10.234-4.5908-10.234-10.234 0-2.4064.85337-4.72505 2.41163-6.5727l1.92174 1.92175c-.66915.72494-1.04629 1.66343-1.04629 2.62954zm.37307-5.8001c.85104-.71797 1.80058-1.28804 2.82828-1.69685 1.19361-.47506 2.45377-.71594 3.74557-.71594 5.6429 0 10.234 4.5908 10.234 10.234 0 1.2915-.2409 2.5517-.7159 3.7456-.4088 1.0274-.9789 1.9772-1.6969 2.8283z" fill-rule="evenodd"/></g></svg>