<?xml version="1.0" encoding="utf-8"?>
<!-- Generator: Adobe Illustrator 27.0.0, SVG Export Plug-In . SVG Version: 6.00 Build 0)  -->
<svg version="1.1" id="Layer_1" xmlns="http://www.w3.org/2000/svg" xmlns:xlink="http://www.w3.org/1999/xlink" x="0px" y="0px"
	 viewBox="0 0 24 24" style="enable-background:new 0 0 24 24;" xml:space="preserve">
<style type="text/css">
	.st0{fill:#42210B;}
</style>
<path class="st0" d="M18.9,24c-0.6,0-1.2-0.1-1.9-0.3c-2.7-0.8-6-3.1-9.8-6.9S1.1,9.7,0.3,7c-0.7-2.3-0.1-3.6,0.3-4.2s0-0.1,0.1-0.1
	c0-0.1,0.2-0.3,0.5-0.7S2,1.1,2.6,0.7S3.8,0.1,4.5,0C5.3-0.1,6,0.2,6.7,0.8c1.8,1.4,2.8,2.7,3.1,3.7s0,1.7-0.3,2.5L9.4,7.2
	C9.2,7.8,8.9,8.5,9,9.3c0.1,1,0.8,2.1,2.2,3.4s2.5,2,3.6,2.1c0.8,0.1,1.5-0.2,2.1-0.5l0.2-0.1c0.7-0.3,1.4-0.5,2.4-0.2
	c1,0.4,2.2,1.4,3.7,3.1c0.6,0.7,0.9,1.5,0.8,2.3c0,0.6-0.3,1.3-0.8,1.9c-0.4,0.6-0.9,1.1-1.3,1.4s-0.6,0.5-0.7,0.5
	C20.8,23.6,20,24,18.9,24z M2.2,4C2,4.2,1.7,4.9,2.2,6.5s2,4.5,6.4,8.9s7.3,5.9,8.9,6.4c1.5,0.5,2.2,0.1,2.5,0
	c0.1,0,0.1-0.1,0.2-0.1s0.2-0.1,0.4-0.4c0.3-0.2,0.6-0.6,0.9-1c0.2-0.3,0.4-0.7,0.4-0.9s0-0.4-0.3-0.8c-1.6-1.9-2.4-2.4-2.8-2.5
	c-0.2-0.1-0.4-0.1-1,0.2l-0.2,0.1c-0.7,0.3-1.7,0.7-3.1,0.6c-1.5-0.1-3-1-4.8-2.6C8,12.6,7.1,11.1,7,9.6C6.8,8.2,7.3,7.1,7.6,6.4
	l0.1-0.2C8,5.6,8,5.4,7.9,5.1C7.8,4.7,7.3,3.9,5.5,2.3C5.1,2,4.8,2,4.6,2S4,2.2,3.7,2.4c-0.4,0.3-0.8,0.7-1,0.9
	C2.5,3.6,2.3,3.8,2.3,3.8C2.3,3.9,2.2,3.9,2.2,4z"/>
</svg>
