<svg enable-background="new 0 0 24 24" viewBox="0 0 24 24" xmlns="http://www.w3.org/2000/svg"><g fill="#42210b"><path d="m17.6 7c-.1-.1-.3-.2-.6-.2s-.4 0-.5.2l-5.2 5.2-2.8-2.7c-.3-.3-.8-.3-1.1 0l-.8.8c-.1.1-.2.3-.2.6s.1.4.2.6l4.1 4.1c.2.2.4.2.6.2s.3-.2.5-.3l6.6-6.6c.3-.3.3-.8 0-1.1z"/><path d="m22.6 3.3c-.1-.3-.3-.5-.6-.6l-9.7-2.7c-.1 0-.3 0-.4 0l-9.6 2.7c-.3.1-.5.3-.6.7 0 .4-1.3 9.9 2 14.6s8.1 6 8.3 6c0 0 .1-.1.2-.1h.2c.2-.1 5-1.3 8.3-6 3.2-4.7 2-14.2 1.9-14.6zm-3.6 13.6c-1.4 2-3.2 3.3-4.6 4.1-1 .5-1.8.8-2.2 1-.4-.1-1.2-.4-2.2-1-1.4-.8-3.2-2.1-4.6-4.1-1.4-1.9-1.9-4.9-1.9-7.9-.1-1.9 0-3.6.1-4.6l8.6-2.4 8.5 2.4c.1.9.2 2.6.2 4.6-.1 3-.6 6-1.9 7.9z"/></g></svg>