<?xml version="1.0" encoding="utf-8"?>
<!-- Generator: Adobe Illustrator 27.0.0, SVG Export Plug-In . SVG Version: 6.00 Build 0)  -->
<svg version="1.1" id="Layer_1" xmlns="http://www.w3.org/2000/svg" xmlns:xlink="http://www.w3.org/1999/xlink" x="0px" y="0px"
	 viewBox="0 0 24 24" style="enable-background:new 0 0 24 24;" xml:space="preserve">
<style type="text/css">
	.st0{fill:#42210B;}
	.st1{fill-rule:evenodd;clip-rule:evenodd;fill:#42210B;}
</style>
<g>
	<path class="st0" d="M11.8,15.5l6.6-6.6c0.3-0.3,0.3-0.8,0-1.1L17.6,7c-0.1-0.1-0.3-0.2-0.6-0.2S16.6,6.8,16.5,7l-5.2,5.2L8.5,9.5
		c-0.3-0.3-0.8-0.3-1.1,0l-0.8,0.8c-0.1,0.1-0.2,0.3-0.2,0.6s0.1,0.4,0.2,0.6l4.1,4.1c0.2,0.2,0.4,0.2,0.6,0.2S11.6,15.6,11.8,15.5z
		"/>
	<path class="st1" d="M1.7,3.4C1.8,3,2,2.8,2.3,2.7L11.9,0c0.1,0,0.3,0,0.4,0L22,2.7c0.3,0.1,0.5,0.3,0.6,0.6
		c0.1,0.4,1.3,9.9-1.9,14.6c-3.3,4.7-8.1,5.9-8.3,6c-0.1,0-0.1,0-0.2,0S12,24,12,24c-0.2,0-5-1.3-8.3-6C0.4,13.3,1.7,3.8,1.7,3.4z
		 M12.2,2l8.5,2.4c0.1,0.9,0.2,2.6,0.2,4.6c-0.1,3-0.6,6-1.9,7.9c-1.4,2-3.2,3.3-4.6,4.1c-1,0.5-1.8,0.8-2.2,1
		c-0.4-0.1-1.2-0.4-2.2-1c-1.4-0.8-3.2-2.1-4.6-4.1C4,15,3.5,12,3.5,9C3.4,7.1,3.5,5.4,3.6,4.4L12.2,2z"/>
</g>
</svg>
