<svg fill="none" height="24" viewBox="0 0 24 24" width="24" xmlns="http://www.w3.org/2000/svg"><path clip-rule="evenodd" d="m19.4395 16.65c-.12-.7344.1128-1.4832.6252-2.0028l3.2773-3.3276c1.2888-1.3092.5772-3.5904-1.2037-3.8604l-4.5288-.68519c-.708-.1068-1.32-.57-1.6356-1.2384l-2.0257-4.27442c-.3984-.841196-1.1736-1.26119-1.9488-1.26119-.774 0-1.5492.419994-1.9476 1.26119l-2.02566 4.27442c-.3156.6684-.92761 1.1316-1.63562 1.2384l-4.52887.68519c-1.7808249.27-2.492439 2.5512-1.20362 3.8604l3.27725 3.3276c.51241.5196.74521 1.2684.62521 2.0028l-.77401 4.6992c-.2412 1.4628.87481 2.6508 2.14083 2.6508.3336 0 .67801-.0828 1.01161-.2652l4.05008-2.2188c.3168-.1728.6636-.2592 1.0104-.2592.348 0 .6948.0864 1.0116.2592l4.0501 2.2188c.3336.1824.678.2652 1.0116.2652 1.266 0 2.382-1.188 2.1408-2.6508zm-1.4189 5.33c.0235.0128.0379.0172.0434.0186.0057.0014.0081.0014.0087.0014.0024 0 .0545-.0047.1105-.0707.0242-.0286.0421-.0616.0524-.0976.0095-.0332.0168-.0832.0046-.1571l-.7745-4.7021c-.2201-1.3466.2014-2.7417 1.1741-3.7287-.0001.0001.0001-.0001 0 0 .0002-.0002.0007-.0007.0009-.0009l3.276-3.32638c.0467-.04747.0667-.09133.0763-.13592.0112-.05229.0099-.11838-.011-.18549-.021-.06727-.0532-.10905-.0746-.12869-.0143-.01313-.0298-.02389-.0689-.02981l-4.5273-.68498c-1.3914-.20988-2.5555-1.11301-3.1452-2.36057-.0002-.0005-.0004-.001-.0007-.0015l-2.0244-4.27188c-.0192-.04052-.037-.06396-.0479-.07619-.0112-.01248-.0207-.01969-.0283-.02438-.0155-.00959-.0377-.01711-.0653-.01711-.0265 0-.0483.00725-.0639.0169-.0076.0047-.0172.01195-.0284.02449-.011.01229-.0286.03536-.0478.07588l-2.02463 4.27229c-.00024.0005-.00047.001-.00071.0015-.58966 1.24756-1.75378 2.15069-3.14513 2.36057l-4.52737.68498c-.03905.00592-.05454.01668-.06886.02981-.02143.01964-.05358.06143-.07456.1287-.02093.0671-.02228.13319-.01101.18548.0096.0445.02944.08826.07597.13562-.0001-.0001.0001.0001 0 0l3.27632 3.32668c-.00022-.0003.00022.0002 0 0 .00008.0001.00083.0008.00091.0009.97271.987 1.39413 2.3821 1.17408 3.7287l-.00041.0025-.77401 4.6992c-.0122.074-.00494.1243.00452.1575.01028.036.02815.069.05236.0976.056.066.10817.0707.11054.0707.00064 0 .00311 0 .00868-.0014.00552-.0014.01994-.0058.04342-.0186-.00002 0 .00002 0 0 0l4.05189-2.2198c.6114-.3335 1.2876-.5034 1.9681-.5034.6811 0 1.3574.1696 1.9693.5034l.0033.0018z" fill="#42210b" fill-rule="evenodd"/></svg>