<svg enable-background="new 0 0 24 24" viewBox="0 0 24 24" xmlns="http://www.w3.org/2000/svg"><path clip-rule="evenodd" d="m23.3 11.3c1.3-1.3.6-3.6-1.2-3.9l-4.5-.7c-.7-.1-1.3-.6-1.6-1.2l-2-4.3c-.5-.8-1.2-1.2-2-1.2s-1.5.4-1.9 1.3l-2.1 4.2c-.3.7-.9 1.2-1.6 1.3l-4.5.7c-1.8.2-2.5 2.5-1.2 3.8l3.3 3.3c.5.5.7 1.3.6 2l-.8 4.7c-.3 1.5.9 2.7 2.1 2.7.3 0 .7-.1 1-.3l4.1-2.2c.3-.2.7-.3 1-.3s.7.1 1 .3l4.1 2.2c.3.2.7.3 1 .3 1.3 0 2.4-1.2 2.1-2.7l-.8-4.7c-.1-.7.1-1.5.6-2zm-4.7 1.9c-1 1-1.4 2.4-1.2 3.7l.8 4.7v.2s0 .1-.1.1v.1l-4-2.2c-.6-.3-1.3-.5-2-.5s-1.4.2-2 .5l-4.1 2.2s0 0 0 0-.1 0-.1-.1c0 0 0-.1-.1-.1 0 0 0-.1 0-.2l.7-4.6c.2-1.3-.2-2.7-1.2-3.7l-3.2-3.4c-.1 0-.1-.1-.1-.1 0-.1 0-.1 0-.2s.1-.1.1-.1h.1l4.5-.7c1.4-.2 2.6-1.1 3.1-2.4l2-4.3v-.1h.1.1v.1l2 4.3c.6 1.2 1.8 2.2 3.1 2.4l4.5.7h.1s.1.1.1.1v.2s0 .1-.1.1z" fill="#42210b" fill-rule="evenodd"/></svg>