<svg enable-background="new 0 0 24 24" viewBox="0 0 24 24" xmlns="http://www.w3.org/2000/svg"><g fill="#42210b"><path d="m23.3 3.9c-.7-1.3-1.8-2.4-3.1-3.1-.9-.4-1.8-.6-2.9-.7-1.1-.1-2.4-.1-4.1-.1h-2.4c-1.7 0-3 0-4 0-1.1.1-2 .3-2.9.7-1.3.7-2.4 1.8-3.1 3.1-.4.9-.6 1.8-.7 2.9s-.1 2.4-.1 4.1v2.4 4c.1 1.1.3 2 .7 2.9.7 1.3 1.8 2.4 3.1 3.1.9.4 1.8.6 2.9.7s2.4.1 4.1.1h2.4 4c1.1-.1 2-.3 2.9-.7 1.3-.7 2.4-1.8 3.1-3.1.4-.9.6-1.8.7-2.9s.1-2.4.1-4.1v-2.4c0-1.7 0-3 0-4-.1-1.1-.3-2-.7-2.9zm-1.6 9.2c0 1.7 0 3-.1 3.9s-.2 1.5-.5 2c-.5.9-1.2 1.6-2 2-.5.2-1 .4-2 .5s-2.2.1-3.9.1h-2.3c-1.7 0-3 0-3.9-.1s-1.5-.2-2-.5c-.9-.5-1.6-1.2-2-2-.2-.5-.4-1-.5-2s-.1-2.2-.1-3.9v-2.3c0-1.7 0-3 .1-3.9s.2-1.5.4-1.9c.5-.9 1.2-1.6 2.1-2.1.5-.2 1-.4 2-.5s2.2-.1 3.9-.1h2.3c1.7 0 3 0 3.9.1s1.5.2 2 .5c.9.5 1.6 1.2 2 2 .2.5.4 1 .5 2s.1 2.2.1 3.9z"/><path d="m17.2 14.5-4.2-1.6v-6c0-.7-.5-1.2-1.2-1.2s-1.2.5-1.2 1.2v6.8c0 .5.3.9.8 1.1l5 1.9c.6.3 1.3-.1 1.5-.7s-.1-1.3-.7-1.5z"/></g></svg>