<?xml version="1.0" encoding="utf-8"?>
<!-- Generator: Adobe Illustrator 27.0.0, SVG Export Plug-In . SVG Version: 6.00 Build 0)  -->
<svg version="1.1" id="Layer_1" xmlns="http://www.w3.org/2000/svg" xmlns:xlink="http://www.w3.org/1999/xlink" x="0px" y="0px"
	 viewBox="0 0 24 24" style="enable-background:new 0 0 24 24;" xml:space="preserve">
<style type="text/css">
	.st0{fill-rule:evenodd;clip-rule:evenodd;fill:#42210B;}
</style>
<path class="st0" d="M10.8,0h2.4c1.7,0,3,0,4.1,0.1c1.1,0.1,2,0.3,2.9,0.7c1.3,0.7,2.4,1.8,3.1,3.1c0.4,0.9,0.6,1.8,0.7,2.9
	C24,7.8,24,9.1,24,10.8v2.4c0,1.7,0,3-0.1,4.1c-0.1,1.1-0.3,2-0.7,2.9c-0.7,1.3-1.8,2.4-3.1,3.1c-0.9,0.4-1.8,0.6-2.9,0.7
	C16.2,24,14.9,24,13.2,24h-2.4c-1.7,0-3,0-4.1-0.1c-1.1-0.1-2-0.3-2.9-0.7c-1.3-0.7-2.4-1.8-3.1-3.1c-0.4-0.9-0.6-1.8-0.7-2.9
	C0,16.2,0,14.9,0,13.2v-2.4c0-1.7,0-3,0.1-4.1c0.1-1.1,0.3-2,0.7-2.9c0.7-1.3,1.8-2.4,3.1-3.1c0.9-0.4,1.8-0.6,2.9-0.7
	C7.8,0,9.1,0,10.8,0z M5,2.9c0.5-0.2,1-0.4,2-0.5c1-0.1,2.2-0.1,3.9-0.1h2.3c1.7,0,3,0,3.9,0.1c0.9,0.1,1.5,0.2,2,0.5
	c0.9,0.5,1.6,1.2,2,2c0.2,0.5,0.4,1,0.5,2c0.1,1,0.1,2.2,0.1,3.9v2.3c0,1.7,0,3-0.1,3.9c-0.1,0.9-0.2,1.5-0.5,2
	c-0.5,0.9-1.2,1.6-2,2c-0.5,0.2-1,0.4-2,0.5c-1,0.1-2.2,0.1-3.9,0.1h-2.3c-1.7,0-3,0-3.9-0.1c-0.9-0.1-1.5-0.2-2-0.5
	c-0.9-0.5-1.6-1.2-2-2c-0.2-0.5-0.4-1-0.5-2c-0.1-1-0.1-2.2-0.1-3.9v-2.3c0-1.7,0-3,0.1-3.9C2.6,6,2.7,5.4,2.9,5
	C3.4,4.1,4.1,3.4,5,2.9z M11.8,5.7c0.7,0,1.2,0.5,1.2,1.2v6l4.2,1.6c0.6,0.2,0.9,0.9,0.7,1.5S17,17,16.4,16.7l-5-1.9
	c-0.5-0.2-0.8-0.6-0.8-1.1V6.9C10.6,6.2,11.1,5.7,11.8,5.7z"/>
</svg>
