<svg enable-background="new 0 0 267.16 78.76" viewBox="0 0 267.16 78.76" xmlns="http://www.w3.org/2000/svg"><path fill="current" d="m248.82 25.19c-18.18-7.69-36.38 4.29-50.49 14.93-31.66 24.42-70.1 34.91-106.62 14.14-18.51-8.47-32.22-25.02-52.28-30.31-38.08-12.91-59.31 54.15-13.14 54.39 16.51.17 25.38-21.06 11.39-30.23-6.86-5.69-24.65-1.82-20.43 9.09 11.6-14.9 31.97 1.22 19.37 15.4-30.81 22.54-48.6-36.45-12.52-45.56 29.21-4.79 48.68 24.97 74.82 32.99 72.75 29.83 99.98-36.44 142.51-33.45 33.42 4.89 26.37 64.87-8.47 47.8-5.53-3.32-7.53-10.13-5.11-16.06 2.99-8.59 17.79-9.8 22.12-.62 1.92-5.52-.7-9.71-6.55-11.49-16.43-5.66-27.99 16.48-15.08 27.26 35.39 22.53 55.7-33.31 20.48-48.28zm-174.76 30.61c-7.49-.71-28.45 10.44-13.53 15.73 14.02 2.12 26.5-7.49 40.56-8.1-8.22-5.49-17.12-8.24-27.03-7.63zm21.22 6.7c-11.98-.26-22.91 7.77-35.57 4.88 5-8.9 21.83-11.16 35.57-4.88zm104.59-5.52c-12.14-3.25-23.11-.09-33.48 6.36 14.17.83 26.98 10.82 41.15 8.01 11.07-3.91-1.43-13.33-7.67-14.37zm-4.44 10.33c-7.74-1.73-15.29-4.3-23.48-4.68 12.68-6.82 31.07-3.82 35.88 4.18-4.34 2.29-8.4 1.4-12.4.5zm-107.73-38.21c5.38-5.9 23.74-.31 28.93 5.42 12.87 12.56 18.67 15.78 32.22 1.63 7.33-7.29 16.19-10 26.36-9.15 1.77.15 3.73-.13 4.46 2.1 1.17-.08 2.13-.44 2.36-1.94-32.02-9.92-40.62 21.74-53.53 12.56-12.24-10.8-27-17.88-43.4-12.49.74 1.4 1.53 1.87 2.6 1.87zm45.95 10.87c14.9-10.14 15.2-33.8-.19-39.97-16.38 7.5-13.4 31.23.19 39.97zm-.02-38.28c13.3 5.87 12.16 27.55.33 35.47-11.01-5.25-14.9-28.56-.33-35.47zm38.79 32.15c-4.84 2.82-8.01 7.34-11.65 11.35-11.73 13.86-33.47 16.81-47.98 5.68-8.84-6.55-14.33-17.71-24.96-21.65 7.11 5.24 12.66 11.76 17.91 18.9 14.73 18.46 41.18 18.46 55.86-.01 5.25-7.14 10.8-13.67 17.91-18.9-3.05.49-5 2.67-7.09 4.63z"/></svg>