<svg enable-background="new 0 0 204.92 25.92" viewBox="0 0 204.92 25.92" xmlns="http://www.w3.org/2000/svg"><path d="m145.49.7c-7.78-.02-15.22 1.69-22.52 4.15-8.79 2.42-17.7 8.36-26.97 4.84-5.84-2-11.69-3.98-17.55-5.92-47.46-15.07-43.78 27.65-25.43 20.36 2.21-1.02 3.63-4.69.73-5.82-2.39-.56-1.82-3.43.23-2.52 3.31 2.31 3.11 7.55-1.31 9.33-18.57 4.75-17.99-23.36 1.01-24.73 14.73-1.97 28.71 3.94 42.36 8.42-4.37-6.08 3.08-11.78 6.46-5.95 3.39-5.88 10.74-.01 6.4 5.95 13.61-4.55 27.67-10.4 42.36-8.4 4.4.59 8.41 2.2 11.42 5.69 5.49 6.16 3.93 18.69-5.36 19.63-5.4 1.3-11.47-4.27-7.26-9.28 1.77-2.18 4.2.54 1.54 1.7-6.07 3.36 2.54 8.61 6.54 6.62 8.51-2.55 7.84-15.33 1.59-19.98-4.01-3.33-9.22-3.96-14.24-4.09zm-41.2 9.51c.85-.16 1.69-.47 2.5-1.05 5.17-3.28.1-11.54-3.32-6.38-.27.97.4 2.57 1.68 1.91.19-.09.48.04.72.07-.66 1.23-2.31.95-2.98-.29-.36-.63-.5-.58-.83.02-.65 1.22-2.37 1.52-2.96.25.24-.02.52-.12.72-.04 1.73.65 2.4-1.8 1.07-2.81-4.71-3.16-8.09 6.11-.65 8.12.64.17 1.9.52 4.05.2zm38.57.9c.83 2.25.2 4.51-1.65 5.48-4.33 1.46-1.07-2.24-3.33-2.83-2.45-.4-2.34 3.32-.53 4.19 2.13 1.29 4.88.65 6.33-1.37 3.53-5.41-2.2-11.31-7.68-11.73-14.2-3.26-26.75 10.53-40.66 5.32-7.6-2.85-15.31-6.04-23.59-5.64-14.18-.19-14.82 16.06-4.71 13.67 1.35-.52 2.13-1.82 1.86-3.11-.22-1.87-3.17-1.9-2.7.27.03 3.95-5.2.25-4.46-2.75 1.73-8.78 14.47-7.47 21.03-5.77 3.88 1.08 7.71 2.33 11.55 3.55 12.55 4.71 24.15-5 36.72-4.77 4.36.03 9.98.97 11.82 5.49zm-114.23 2.67c-5.04 3.04-10.42 4.66-16.36 3.91-6.8-.08-13.74-7.43-8.98-13.85 3.07-5.02 11.47-1.44 9.1 3.88-.47.79-1.41 1.29-2.23 1.18-1.47-.03-.72-1.96-2-2.16-.26.02-.7.45-.73.74 1.02 5.26 8.21 1.97 6.38-2.95-4.39-9.82-17.22-1.31-12.95 7.78 1.36 3.18 3.98 4.83 7.09 5.89 7.66 2.8 15.17-.2 21.55-4.55-.18-.48-.58.01-.87.13zm175.01-.56c5.14-8.48-6.46-18.66-12.2-9.47-2.56 4.62 3.74 9.35 6.08 4.21.15-.57.02-1.07-.59-1.22-.65-.16-.92.24-1.01.85-.62 3.01-4.51.43-3.8-2 2.5-8.74 13.46-2.2 10.72 5.19-4.52 10.58-19.4 7.66-27.26 2.65 6.92 6.38 21.76 9.11 28.06-.21zm-180.47-2.43c-2.56-1.32-2.56-5.4.03-6.72 1.72-.9 3.53-.21 3.23 1.83-.13.89.6 1.34 1.47 1.06 2.34-.94.68-4.25-1.32-4.72-2.81-.91-5.81.65-6.71 3.48-1.95 8.22 9.52 8.09 13.74 3.84-3.1 1.62-7.14 3.02-10.44 1.23zm151.89.93c2.12.79 4.33 1.14 6.56.46 6.74-2 3.27-12-3.22-9.96-1.62.52-2.64 1.93-2.46 3.4.16 1.76 2.92 1.98 2.57-.04-.04-3.2 4.51-1.84 4.92.51 1.75 7.14-8.32 6.1-12.09 3.45-.28.77 2.93 1.7 3.72 2.18zm-13.76 2.17c-.62 1.95-1.98 2.47-3.82 1.63-2.59-.43-1.16 2.98.75 2.67 1.85.02 3.07-.97 3.84-2.54 4.1-9.87-9.37-15.42-17.42-14.05 6.96-.02 19.06 3.14 16.65 12.29zm-118.97.24c.29 1.6 1.11 2.94 2.64 3.71 1.5.97 4.73-.08 3.83-2-.5-.69-1.09-.57-1.71-.12-1.6 1.22-3.04-.82-3.53-2.15-.72-2.35-.26-4.52 1.4-6.39 3.81-4.52 9.69-5.24 15.22-5.63-7.42-.98-19.68 3.01-17.85 12.58zm128.78 2.26c.45 2.17-1.22 7.17-3.97 4.65-2.03-2.05-3.41 1.36.19 1.81 6.46.13 5.17-9.44 2.34-13.01-3.26-5.19-8.83-7.9-14.42-9.83 6.28 3.16 15.38 7.66 15.86 16.38zm-137.96-1.46c-1.2 3.83 1.53 10.18 6.17 7.3 1.32-.8-.03-2.59-1.17-1.52-3.29 3.52-5.06-3.1-4.14-5.63 1.54-7.71 8.91-12.26 15.78-14.87-7.39 1.73-14.96 6.95-16.64 14.72zm24.53-4.47c.12.96 1.04 1.27 1.73.57 2.46-6.61 7.37-6.97 13.64-7.57-5.72-.97-13.87.56-15.37 7zm87.36-.34c.42 1.18.95 1.61 1.63 1.33.65-.27.81-1.05.36-2.11-2.7-5.5-9.52-6.82-15.06-5.68 5.01.28 11.31.81 13.07 6.46zm27.58 9.75c2.57 2.74 1.8-7.45-1.93-9.74 2.26 3.13 2.33 6.06 1.93 9.74zm-141.76-2.65c.13.96-.35 2.8.89 3.08 1.84-.84-1.56-4.15 2.46-10.24-2.09 1.86-3.22 4.38-3.35 7.16z"/></svg>