<svg enable-background="new 0 0 398.04 131.02" viewBox="0 0 398.04 131.02" xmlns="http://www.w3.org/2000/svg"><path d="m149.7 91.89c3.74 1.35 5.46 8.47 9.25 7.97 6.6-1.57 20.02 14.14 31.64 13.37 9.31.34-.17-3.6-2.1-6.04-1.21-2.67-2.28-2.36-4.37-.59-3.28 4.68-11.89-5-5.59-5.03 1.27.3 1.83-2.15.4-2.27-6.15-.94 5.67-3.41 1.26-7.25-1.33-4.55-10.91 19.72-15.2 1.46 3.83-3.22 5.79 2.74 4.43-5.66 1.11-15.93-16.52-33.63-6.42-50.37 1.95-2.67 3.12-1.91 2.26.82-.08 7.88 7.11-10.88 8.47-2.91-.13 4.9 6.5 3.68 6.49-.67 1.61.55 2.74 6.93.08 6-3.9-1.39-4.89 5.32-1.07 5.52 4.62.8 4.77 2.06 3.47 6.01 6.53-3.95 13.12-8.77 21.82-5.73 9.1 1.05 11.47 12.8 14.2 16.69.05-3.15-.21-6.32 1.36-9.28.7-1.32-2.96-.87-1.3-2.79 1.44-1.67.23-1.92-1.09-2.65 1.11-4.08-3.71-9.96-2.26-14.9 1.84-.4 3.62 4.42 6.15 1.86 1.49-1.45-2.86-4.36.72-3.63 9.22 1.85 7.93 12.4 9.84 19.11 8.21-21.05 6.53 12.53.85 20.61-3.3 4.55-2.65 10.72-3.33 14.61-4.96.75.65 6.38 3.26 5.19 1.26-.2 2.35-2.12 3.58.11 3.15 5.1-3.74 9.85-7.73 5.53-3.51-.59-5.76-11.97-7.79-7.06-.66 2.65.26 4.89 1.82 6.96-4.5-3.3-6.85.99-1.77 2.95 4.5 1.14.47-8.02 6.3 1.65 26.66 6.26 34.03-41.1 27.81-61.79 27.32 63.89-71.87 112.77-105.33 52.12zm22.11-42.97c-2.97-.42-3.65-3.47-5.58-5.19.02 2.41 1.52 7.04 3.94 7.77 2.3-.97.81-2.94 3.66-3.14-.95-1.11-2.2-.92-2.02.56zm50.78 58.65c-4.04-6.94-8.74-.74-12.21 3.48.27 3.67 10.26-1.66 12.21-3.48zm-29.07-19.91c-5.25.51 3.54 4.49 5.01 4.62 1.62.13 10.98-2.44 6.59-4.1-3.96 1.3-7.83.51-11.6-.52zm-6.38 11.82c.07 7.02 12.97 4.58 9.34.59-2.87 1.39-8.09-3.14-9.34-.59zm21.22.52c-6.92-1.58-2.17 6.83 2.03 3.39 3.41-2.04 1.14-4.16-2.03-3.39zm-23.05-4.83c-1.1-2.69-4.2-13.78-7.25-10.9 3.4 2.26 3.67 13.42 7.25 10.9zm17.72-40.9c-8.8 3.31 3.83 1.64 6.16 5.77 1.2-2.78-3.1-5.88-6.16-5.77zm6.68 25.75c-2.78-2.75-3.83-7.73-7.24-9.44.39 2.32 3.8 13.4 7.24 9.44zm-35.49 4.93c-.58-1.94-3.63-12.74-4.99-9.22 1.41 1.91 2.94 12.28 4.99 9.22zm.01-18.66c-2.51 1.4 1 4.66 2.43 5.72 2.93-.52-.23-5.6-2.43-5.72zm15.94-4.03c-3.3 1.93 5.42 6.92 4.93 3.12-1.69-.99-3.71-1.43-4.93-3.12zm2.4-5.47c1.09-.59 5.76 1.78 3.75-.57-2.2-3.37-9.62 1.49-3.75.57zm11.17 10.11c5.97-1.16-2.08-3.78-3.59-2.32-.32 1.6 2.61 1.98 3.59 2.32zm19.71-1.93c-1.51.44-3.74 3.16-1.44 4.15 1.74-.05 3.73-3.9 1.44-4.15zm-54.87-.47c-.58 1.9 1.76 4.85 3.6 5.84.81-2.1-2.1-4.53-3.6-5.84zm17.78 17.91c-.66-1.34-4.21-6.9-3.1-2.7.33.95 2.46 5.1 3.1 2.7zm-12.81-23.9c-.44-1.29-1.8-4.68-3.4-3.87-.33 1.3 2.2 6.08 3.4 3.87zm27.97 22.72c-.1-.84-.46-1.68-1.26-1.86-3.01.22.55 5.35 1.26 1.86zm-6.44 36.52c7.1.05-.34-1.65-3.25-.38 1.13.13 2.27.26 3.25.38zm34.44-54.62c-.88-2.19-2.71 1.72-2.58 2.53.77 1.24 1.87-2 2.58-2.53zm-23.59 53.78c-.68.17-1.51-.18-2.08.53 1.54.63 5.73-.38 2.08-.53zm-41.55-55.31c-1.2.74-.14 3.22 1.03 3.43.68-1.08-.31-2.51-1.03-3.43zm70.12-5.46c1.06-.39 1.11-1.61.71-2.47-.4.81-1.42 1.54-.71 2.47zm-35.05-5.4c-.18-.94-1.46-.9-1.48.04.14.98 1.26.9 1.48-.04zm151.28-18.87c-8.3-.4-16.65 4.65-24.51 4.98 14.66-8.47 43.31-14.33 55.56 1.95-7.68-3.11-37.32-10.53-19.01-.02-10.16.81-4.35-3.98-16.87-.2-.18-1.15 6.27-3.67 1.28-3.05-10.22 2.22-20.84 4.94-30.63 8 4.17 1.6 8.51-.42 12.75-.42.05 4.15 9.3.1 12.72.19 5.03-4.13 26.11 5.02 14.99 2.73-13.7-6.01-29.71 8.1-42.35-1.56-17.74 1.24-42.1 1.96-51.89-16.64 2.45 3.88 22.29 15.61 14.54 8.88-2.07-.41-10.6-6.88-5.76-6.11 29.24 18.26 43.87-16.42 48.95-10.57-3.51 17.65 16 3.05 19.85-4.13 4.2-4.3 3.47 5.09 7.76 3.09 6.54-2.46 37.76-2.85 24.32 7.69-12.12-2.83-23.92-3.06-35.55 2.4-10.68 5.27-22.92 8.58-33.99 11.46 16.84 4.79 35.38-6.99 51.86-9.29-1.35-.77-2.97-.39-4.02.62zm-33.98 1.94c4.73-.55 18.68-4.48 17.9-6.95-5.93 1.7-31.93 11.73-17.9 6.95zm-22.68 3.86c2.35-.38 8.54.33 8.1-2.85.07-.84-16.68 2.76-8.1 2.85zm6.62 5.13c4.04-.44-.42-1.45-1.91-.4.64.13 1.27.26 1.91.4zm-4.82-1.44c-.41-.6-2.93-.41-2.02.29.71.19 1.5.38 2.02-.29zm70.03-17.67c.41-.14.7-.23.99-.33-1.04-.92-3.45-.08-.99.33zm-60.13 12.16c-.44.04-.92.01-1.08.55.77.9 3.44-.41 1.08-.55zm-164.97 54.95c4.56 11.27-.68 6.54-4.15-.25 28.11 71.86 145.61 39.28 134.44-37.37-2.62-19.63 26.11 20.28 51.43 3.85 4.87-1.48 9.53.15 13.74 1.94.31-2.52-3.19-3.88-5.32-4.04-53.75 8.95-23.42 1.42-62.52-10.25-5.73 5.38-7.84-9.22-7.96-13.11 3.72 2.47 5.79 7.09 10.32 8.2-3.42-4.37-9.46-8.08-11.13-14.03-4.8 11.14 5.81 21.47 10.08 30.93 1.84 32.32-17.43 51.61-44.75 63.6-3.81 1.41-.24 2.66 1.66 2.84-13.04 7.33-29.69 7.6-44.25 3.99-5.56-1-23.85-8.26-8.18-6.39-13.97-6.55-25.8-16.75-33.41-29.91zm-105.99-28.88c6.5 51.26-72.88-2.74-12.11-30.15-1.56 2.8 3.03 1.39 4.14.02l-.17.1c27.62-4.5 52.94 15.75 81.07 10.5-9.05-3-20.51-3.32-30.01-7.25 3.55-2.5 36.46 10.2 46.82-3.38 9.07-1.14-5.41 6.65-6.91 7.57 9.2 1.98 14.44-10.28 19.79-14.57 5.23 20.98-12.05 33.56 3.27 66.16-6.54-10.37-8.58-24.68-8.26-37.19.16-1.59-1.28-1.8-2.2-.75-2.23 7.48-2.17 6.08-2.17-1.28 4.42-2.85 13.33-18.3 5.86-19.24-10.05 9.15-21.99 13.42-35.58 12.71-18.08.36-34.42-9.86-52.12-9.53-4.82 1.24-10.61-.86-2.25-.76-9.5-6.41-48.47 8.96-40.23 31.32 3.84 19.28 35.6 16 30.95-4.4-.01-.02.11.12.11.12zm77.56-21.28c-.65-.4-.96-.37-1.18.42.65.4.96.35 1.18-.42zm125.08-21.58c-33.06-31.25-115.05-2.17-86.75 66.79-15.29-22.86-5.2-58.36 14.54-72.35-.59-4.28-12.37 10.42-10.57 5.23 18.75-22.67 69.03-28.2 82.78.33zm-45.68-15.24c7.45-.63 14.73.96 22.01 1.65-7.18-3.75-17.66-3.34-25.07-1.21.98.69 2.28.31 3.06-.44zm-116.04 30.06c-1.52-3.19-15.36-4.6-11.83-7.62 2.68-1.83-7.9-13.88-10.06-10.71-4.52 10.31-28.41-7.46-31.95 7.07.57 3.95 4.12 4.64 7.25 3.57 16.51-5.68 31.61 3.42 46.59 7.69zm118.51-19.7c5.09-6.56 10.98 7.27 4.42 4.82-3.75-2.85-14.7.96-14.18 6.02.72 2.8 3.49 1.71 5.44 1.17 9.24-.82-4.54 17.25 2.84 13.69-2.2-1.29.53-3.89 1.99-4.37 1.86-.7-.5-3.04 1.41-3.31 2.19-.31 2.05-1.34 1.57-3.03 2.55-12.75 6 7.1 5.83 9.9 4.53 3.78 1.9-28.82-1.27-29.22-3.08-1.34-11.88-2.59-11.89 1.49 1.85 4.16-.59 9.52 3.84 2.84zm196.07 60.1c-12.18 20.11-42.52-10.54-16.35-15.4-17.96-7.06-14.13 24.14 2.67 24.65 20.15.39 30.13-32.52 11.05-40.23 8.57 7.9 9.6 21.44 2.63 30.98zm-325.56-19.87c-2.28-.44-3.77 2.84-2.38 4.49 5.85-2.51 11.63-3.04 17.76-1.07 19.12 11.26 33.09-8.41 48.83-10.6-9.72-10.45-27.26 23.1-44.72 9.75-5.84-2.31-12.47-3.65-19.49-2.57zm-25.89-18.48c-10.35-1.46-12.25 17.62-4.02 16.49 10.58-18.55 35.57 2.48 47.13-6.24-15.41 1.25-34.51-10.2-47.21 1.61-8.82 4.29-1.54-11.58 4.1-11.86zm-4.05 25.99c-18.37-16.97-7.28 11.65-17.21 9.46-2.05-3.18-3.91-.83-.72 1.32 10.73 10.51 3.27-14.49 11.01-13.24 3.4-.55 6.67 7.27 6.92 2.46zm42.39-42.51c1.19 13.8-3.27 7.64 8.52 9.94 6.38 2.59-8.32-13.58-8.52-9.94zm63.64 27.54c-3.51 8.31-1.74 18.59.44 27.16-.04-8.64-2.45-18.59-.44-27.16zm221.92-8.18c7.04 4.54.61 10.32 2.4 16.09 4.38-4.43 4.77-13.8-2.4-16.09zm21.89 26.87c-.09-1.9-.94-2.31-.93-.15.38 5.82-6.37 6.02-8.33 9.88 5.12.96 9.78-4.84 9.26-9.73zm-361.95-33.87c1.38.01 2.76.02 4.14.02l-.17.1c3.65-2.73 8.96-1.55 13.05-3.5-5.79-.66-11.98.97-17.02 3.38zm109.09 47.16c-1.18-6.64-1.41-13.82-3.09-20.19-.12 6.91.3 13.73 3.09 20.19zm108.44-59.3c2.27-.41-.03-3.51-1.55-3.37-3.32.55-1.06 4.21 1.55 3.37zm-99.5 27.23c1.57-2.69 2.33-6.11 2.76-9.24-2.48 2.33-2.49 6.58-2.76 9.24zm-127.56 9.39c-1.79-.71-2.09 3.21-.39 2.98 3.03.94 2.98-2.34.39-2.98zm136.53 35.64c-.03-1.86-1.91-5.97-3.43-6.22-.93 1.58 2.08 5.38 3.43 6.22zm236.64-33.13c-.39-2.22-5.17-1.85-3.24 1.34.9-1.28 2.52-.61 3.24-1.34zm-133.21 44.65c.41-1.11-.1-2.01-1.2-1.96-2.11.39.13 4.85 1.2 1.96zm-98.34-11.58c.1 1.77 2.07 4.55 3.57 4.18-.48-1.88-2.52-3.29-3.57-4.18zm164.79-53.72c.94 1.14 3.17-.12 4.29-.74-1.23-.6-3.43-.81-4.29.74zm-45.74 3.65c.45 1.52 2.8 2.99 4.13 2.61.01-1.53-3.4-2.09-4.13-2.61zm-140.05 43.17c-.02-2.29-.55-4.41-2.1-6.19.17 2.25.35 4.49 2.1 6.19zm125.86-59.18c1.48.03 1.58 2.13 3.11 2.08l-.03.03c-.09-2.31-2.72-5.27-3.08-2.11zm-67 13.99c1.03-.05 2.73 1.3 3.35.29-.62-1.87-2.77-1.67-3.35-.29zm-56.34 50.16c-.8-1.75-.75-3.94-2.62-5.15.23 2.05.5 4.07 2.62 5.15zm6.98-11.45c-.92 1.29.16 2.81 1.01 3.85.96-1.22-.49-2.52-1.01-3.85zm-94.55-49.02c-1.19-.84-2.69-.35-4-.16 1 .94 2.59.5 4 .16zm55.98 6.12c-.99-.6-2.02-.39-3.1-.21.93.8 2.01.54 3.1.21zm41.47-4.14c-1.05.44-1.51 1.66-1.02 2.64.96-.5 1.39-1.71 1.02-2.64zm-67.48 17.41c.98.95 2.78 1.31 3.98.63-1.14-.52-3.33-.24-3.98-.63zm243.53-26.9c-.73-1.37-2.19 1.61-.95 2.2.73-.58 1.02-1.34.95-2.2zm-309.12 43.11c0 .28.12.55.19.83.21-.9.37-1.38-.04-2.35-.07.65-.15 1.08-.15 1.52zm260.62-23.16c-2.37-4.05-4.35-.03.1-.12zm-8.58 23.72c-.03 2.18.53.46.31-1.07-.18.63-.29.85-.31 1.07zm-112.43 23.23c-.08-1.38-1.21-2.44-1.91-3.08-.16 1.59.98 2.55 1.91 3.08zm229.05-50.03c1.37 3.57 3.72-.12-.09.1zm-228.93 49.92c-.24 1.61.96 2.57 1.82 3.23.19-1.53-1.41-2.39-1.82-3.23zm162.81-39.27c.72.5 1.43.21 2.2-.04-.68-.41-1.39-.31-2.2.04zm-165.98-23.68c.62-.53 2.65-1.41 1.44-2.31-.9.08-.94 2.23-1.44 2.31zm.12.1c-.58.53-2.64 1.54-1.32 2.32 1.03-.02.83-2.23 1.32-2.32z"/></svg>